<svg width="1605" height="850" viewBox="0 0 1605 850" fill="none" xmlns="http://www.w3.org/2000/svg">
<rect width="18" height="18" fill="#191919"/>
<rect x="69" width="18" height="18" fill="#191919"/>
<rect x="138" width="18" height="18" fill="#191919"/>
<rect x="207" width="18" height="18" fill="#191919"/>
<rect x="276" width="18" height="18" fill="#191919"/>
<rect x="345" width="18" height="18" fill="#191919"/>
<rect x="414" width="18" height="18" fill="#191919"/>
<rect x="483" width="18" height="18" fill="#191919"/>
<rect x="552" width="18" height="18" fill="#191919"/>
<rect x="621" width="18" height="18" fill="#191919"/>
<rect x="690" width="18" height="18" fill="#191919"/>
<rect x="759" width="18" height="18" fill="#191919"/>
<rect x="828" width="18" height="18" fill="#191919"/>
<rect x="897" width="18" height="18" fill="#191919"/>
<rect x="966" width="18" height="18" fill="#191919"/>
<rect x="1035" width="18" height="18" fill="#191919"/>
<rect x="1104" width="18" height="18" fill="#191919"/>
<rect x="1173" width="18" height="18" fill="#191919"/>
<rect x="1242" width="18" height="18" fill="#191919"/>
<rect x="1311" width="18" height="18" fill="#191919"/>
<rect x="1380" width="18" height="18" fill="#191919"/>
<rect x="1449" width="18" height="18" fill="#191919"/>
<rect x="1518" width="18" height="18" fill="#191919"/>
<rect x="1587" width="18" height="18" fill="#191919"/>
<rect y="64" width="18" height="18" fill="#191919"/>
<rect x="69" y="64" width="18" height="18" fill="#191919"/>
<rect x="138" y="64" width="18" height="18" fill="#191919"/>
<rect x="207" y="64" width="18" height="18" fill="#191919"/>
<rect x="276" y="64" width="18" height="18" fill="#191919"/>
<rect x="345" y="64" width="18" height="18" fill="#191919"/>
<rect x="414" y="64" width="18" height="18" fill="#191919"/>
<rect x="483" y="64" width="18" height="18" fill="#191919"/>
<rect x="552" y="64" width="18" height="18" fill="#191919"/>
<rect x="621" y="64" width="18" height="18" fill="#191919"/>
<rect x="690" y="64" width="18" height="18" fill="#191919"/>
<rect x="759" y="64" width="18" height="18" fill="#191919"/>
<rect x="828" y="64" width="18" height="18" fill="#191919"/>
<rect x="897" y="64" width="18" height="18" fill="#191919"/>
<rect x="966" y="64" width="18" height="18" fill="#191919"/>
<rect x="1035" y="64" width="18" height="18" fill="#191919"/>
<rect x="1104" y="64" width="18" height="18" fill="#191919"/>
<rect x="1173" y="64" width="18" height="18" fill="#191919"/>
<rect x="1242" y="64" width="18" height="18" fill="#191919"/>
<rect x="1311" y="64" width="18" height="18" fill="#191919"/>
<rect x="1380" y="64" width="18" height="18" fill="#191919"/>
<rect x="1449" y="64" width="18" height="18" fill="#191919"/>
<rect x="1518" y="64" width="18" height="18" fill="#191919"/>
<rect x="1587" y="64" width="18" height="18" fill="#191919"/>
<rect y="128" width="18" height="18" fill="#191919"/>
<rect x="69" y="128" width="18" height="18" fill="#191919"/>
<rect x="138" y="128" width="18" height="18" fill="#191919"/>
<rect x="207" y="128" width="18" height="18" fill="#191919"/>
<rect x="276" y="128" width="18" height="18" fill="#191919"/>
<rect x="345" y="128" width="18" height="18" fill="#191919"/>
<rect x="414" y="128" width="18" height="18" fill="#191919"/>
<rect x="483" y="128" width="18" height="18" fill="#191919"/>
<rect x="552" y="128" width="18" height="18" fill="#191919"/>
<rect x="621" y="128" width="18" height="18" fill="#191919"/>
<rect x="690" y="128" width="18" height="18" fill="#191919"/>
<rect x="759" y="128" width="18" height="18" fill="#191919"/>
<rect x="828" y="128" width="18" height="18" fill="#191919"/>
<rect x="897" y="128" width="18" height="18" fill="#191919"/>
<rect x="966" y="128" width="18" height="18" fill="#191919"/>
<rect x="1035" y="128" width="18" height="18" fill="#191919"/>
<rect x="1104" y="128" width="18" height="18" fill="#191919"/>
<rect x="1173" y="128" width="18" height="18" fill="#191919"/>
<rect x="1242" y="128" width="18" height="18" fill="#191919"/>
<rect x="1311" y="128" width="18" height="18" fill="#191919"/>
<rect x="1380" y="128" width="18" height="18" fill="#191919"/>
<rect x="1449" y="128" width="18" height="18" fill="#191919"/>
<rect x="1518" y="128" width="18" height="18" fill="#191919"/>
<rect x="1587" y="128" width="18" height="18" fill="#191919"/>
<rect y="192" width="18" height="18" fill="#191919"/>
<rect x="69" y="192" width="18" height="18" fill="#191919"/>
<rect x="138" y="192" width="18" height="18" fill="#191919"/>
<rect x="207" y="192" width="18" height="18" fill="#191919"/>
<rect x="276" y="192" width="18" height="18" fill="#191919"/>
<rect x="345" y="192" width="18" height="18" fill="#191919"/>
<rect x="414" y="192" width="18" height="18" fill="#191919"/>
<rect x="483" y="192" width="18" height="18" fill="#191919"/>
<rect x="552" y="192" width="18" height="18" fill="#191919"/>
<rect x="621" y="192" width="18" height="18" fill="#191919"/>
<rect x="690" y="192" width="18" height="18" fill="#191919"/>
<rect x="759" y="192" width="18" height="18" fill="#191919"/>
<rect x="828" y="192" width="18" height="18" fill="#191919"/>
<rect x="897" y="192" width="18" height="18" fill="#191919"/>
<rect x="966" y="192" width="18" height="18" fill="#191919"/>
<rect x="1035" y="192" width="18" height="18" fill="#191919"/>
<rect x="1104" y="192" width="18" height="18" fill="#191919"/>
<rect x="1173" y="192" width="18" height="18" fill="#191919"/>
<rect x="1242" y="192" width="18" height="18" fill="#191919"/>
<rect x="1311" y="192" width="18" height="18" fill="#191919"/>
<rect x="1380" y="192" width="18" height="18" fill="#191919"/>
<rect x="1449" y="192" width="18" height="18" fill="#191919"/>
<rect x="1518" y="192" width="18" height="18" fill="#191919"/>
<rect x="1587" y="192" width="18" height="18" fill="#191919"/>
<rect y="256" width="18" height="18" fill="#191919"/>
<rect x="69" y="256" width="18" height="18" fill="#191919"/>
<rect x="138" y="256" width="18" height="18" fill="#191919"/>
<rect x="207" y="256" width="18" height="18" fill="#191919"/>
<rect x="276" y="256" width="18" height="18" fill="#191919"/>
<rect x="345" y="256" width="18" height="18" fill="#191919"/>
<rect x="414" y="256" width="18" height="18" fill="#191919"/>
<rect x="483" y="256" width="18" height="18" fill="#191919"/>
<rect x="552" y="256" width="18" height="18" fill="#191919"/>
<rect x="621" y="256" width="18" height="18" fill="#191919"/>
<rect x="690" y="256" width="18" height="18" fill="#191919"/>
<rect x="759" y="256" width="18" height="18" fill="#191919"/>
<rect x="828" y="256" width="18" height="18" fill="#191919"/>
<rect x="897" y="256" width="18" height="18" fill="#191919"/>
<rect x="966" y="256" width="18" height="18" fill="#191919"/>
<rect x="1035" y="256" width="18" height="18" fill="#191919"/>
<rect x="1104" y="256" width="18" height="18" fill="#191919"/>
<rect x="1173" y="256" width="18" height="18" fill="#191919"/>
<rect x="1242" y="256" width="18" height="18" fill="#191919"/>
<rect x="1311" y="256" width="18" height="18" fill="#191919"/>
<rect x="1380" y="256" width="18" height="18" fill="#191919"/>
<rect x="1449" y="256" width="18" height="18" fill="#191919"/>
<rect x="1518" y="256" width="18" height="18" fill="#191919"/>
<rect x="1587" y="256" width="18" height="18" fill="#191919"/>
<rect y="320" width="18" height="18" fill="#191919"/>
<rect x="69" y="320" width="18" height="18" fill="#191919"/>
<rect x="138" y="320" width="18" height="18" fill="#191919"/>
<rect x="207" y="320" width="18" height="18" fill="#191919"/>
<rect x="276" y="320" width="18" height="18" fill="#191919"/>
<rect x="345" y="320" width="18" height="18" fill="#191919"/>
<rect x="414" y="320" width="18" height="18" fill="#191919"/>
<rect x="483" y="320" width="18" height="18" fill="#191919"/>
<rect x="552" y="320" width="18" height="18" fill="#191919"/>
<rect x="621" y="320" width="18" height="18" fill="#191919"/>
<rect x="690" y="320" width="18" height="18" fill="#191919"/>
<rect x="759" y="320" width="18" height="18" fill="#191919"/>
<rect x="828" y="320" width="18" height="18" fill="#191919"/>
<rect x="897" y="320" width="18" height="18" fill="#191919"/>
<rect x="966" y="320" width="18" height="18" fill="#191919"/>
<rect x="1035" y="320" width="18" height="18" fill="#191919"/>
<rect x="1104" y="320" width="18" height="18" fill="#191919"/>
<rect x="1173" y="320" width="18" height="18" fill="#191919"/>
<rect x="1242" y="320" width="18" height="18" fill="#191919"/>
<rect x="1311" y="320" width="18" height="18" fill="#191919"/>
<rect x="1380" y="320" width="18" height="18" fill="#191919"/>
<rect x="1449" y="320" width="18" height="18" fill="#191919"/>
<rect x="1518" y="320" width="18" height="18" fill="#191919"/>
<rect x="1587" y="320" width="18" height="18" fill="#191919"/>
<rect y="384" width="18" height="18" fill="#191919"/>
<rect x="69" y="384" width="18" height="18" fill="#191919"/>
<rect x="138" y="384" width="18" height="18" fill="#191919"/>
<rect x="207" y="384" width="18" height="18" fill="#191919"/>
<rect x="276" y="384" width="18" height="18" fill="#191919"/>
<rect x="345" y="384" width="18" height="18" fill="#191919"/>
<rect x="414" y="384" width="18" height="18" fill="#191919"/>
<rect x="483" y="384" width="18" height="18" fill="#191919"/>
<rect x="552" y="384" width="18" height="18" fill="#191919"/>
<rect x="621" y="384" width="18" height="18" fill="#191919"/>
<rect x="690" y="384" width="18" height="18" fill="#191919"/>
<rect x="759" y="384" width="18" height="18" fill="#191919"/>
<rect x="828" y="384" width="18" height="18" fill="#191919"/>
<rect x="897" y="384" width="18" height="18" fill="#191919"/>
<rect x="966" y="384" width="18" height="18" fill="#191919"/>
<rect x="1035" y="384" width="18" height="18" fill="#191919"/>
<rect x="1104" y="384" width="18" height="18" fill="#191919"/>
<rect x="1173" y="384" width="18" height="18" fill="#191919"/>
<rect x="1242" y="384" width="18" height="18" fill="#191919"/>
<rect x="1311" y="384" width="18" height="18" fill="#191919"/>
<rect x="1380" y="384" width="18" height="18" fill="#191919"/>
<rect x="1449" y="384" width="18" height="18" fill="#191919"/>
<rect x="1518" y="384" width="18" height="18" fill="#191919"/>
<rect x="1587" y="384" width="18" height="18" fill="#191919"/>
<rect y="448" width="18" height="18" fill="#191919"/>
<rect x="69" y="448" width="18" height="18" fill="#191919"/>
<rect x="138" y="448" width="18" height="18" fill="#191919"/>
<rect x="207" y="448" width="18" height="18" fill="#191919"/>
<rect x="276" y="448" width="18" height="18" fill="#191919"/>
<rect x="345" y="448" width="18" height="18" fill="#191919"/>
<rect x="414" y="448" width="18" height="18" fill="#191919"/>
<rect x="483" y="448" width="18" height="18" fill="#191919"/>
<rect x="552" y="448" width="18" height="18" fill="#191919"/>
<rect x="621" y="448" width="18" height="18" fill="#191919"/>
<rect x="690" y="448" width="18" height="18" fill="#191919"/>
<rect x="759" y="448" width="18" height="18" fill="#191919"/>
<rect x="828" y="448" width="18" height="18" fill="#191919"/>
<rect x="897" y="448" width="18" height="18" fill="#191919"/>
<rect x="966" y="448" width="18" height="18" fill="#191919"/>
<rect x="1035" y="448" width="18" height="18" fill="#191919"/>
<rect x="1104" y="448" width="18" height="18" fill="#191919"/>
<rect x="1173" y="448" width="18" height="18" fill="#191919"/>
<rect x="1242" y="448" width="18" height="18" fill="#191919"/>
<rect x="1311" y="448" width="18" height="18" fill="#191919"/>
<rect x="1380" y="448" width="18" height="18" fill="#191919"/>
<rect x="1449" y="448" width="18" height="18" fill="#191919"/>
<rect x="1518" y="448" width="18" height="18" fill="#191919"/>
<rect x="1587" y="448" width="18" height="18" fill="#191919"/>
<rect y="512" width="18" height="18" fill="#191919"/>
<rect x="69" y="512" width="18" height="18" fill="#191919"/>
<rect x="138" y="512" width="18" height="18" fill="#191919"/>
<rect x="207" y="512" width="18" height="18" fill="#191919"/>
<rect x="276" y="512" width="18" height="18" fill="#191919"/>
<rect x="345" y="512" width="18" height="18" fill="#191919"/>
<rect x="414" y="512" width="18" height="18" fill="#191919"/>
<rect x="483" y="512" width="18" height="18" fill="#191919"/>
<rect x="552" y="512" width="18" height="18" fill="#191919"/>
<rect x="621" y="512" width="18" height="18" fill="#191919"/>
<rect x="690" y="512" width="18" height="18" fill="#191919"/>
<rect x="759" y="512" width="18" height="18" fill="#191919"/>
<rect x="828" y="512" width="18" height="18" fill="#191919"/>
<rect x="897" y="512" width="18" height="18" fill="#191919"/>
<rect x="966" y="512" width="18" height="18" fill="#191919"/>
<rect x="1035" y="512" width="18" height="18" fill="#191919"/>
<rect x="1104" y="512" width="18" height="18" fill="#191919"/>
<rect x="1173" y="512" width="18" height="18" fill="#191919"/>
<rect x="1242" y="512" width="18" height="18" fill="#191919"/>
<rect x="1311" y="512" width="18" height="18" fill="#191919"/>
<rect x="1380" y="512" width="18" height="18" fill="#191919"/>
<rect x="1449" y="512" width="18" height="18" fill="#191919"/>
<rect x="1518" y="512" width="18" height="18" fill="#191919"/>
<rect x="1587" y="512" width="18" height="18" fill="#191919"/>
<rect y="576" width="18" height="18" fill="#191919"/>
<rect x="69" y="576" width="18" height="18" fill="#191919"/>
<rect x="138" y="576" width="18" height="18" fill="#191919"/>
<rect x="207" y="576" width="18" height="18" fill="#191919"/>
<rect x="276" y="576" width="18" height="18" fill="#191919"/>
<rect x="345" y="576" width="18" height="18" fill="#191919"/>
<rect x="414" y="576" width="18" height="18" fill="#191919"/>
<rect x="483" y="576" width="18" height="18" fill="#191919"/>
<rect x="552" y="576" width="18" height="18" fill="#191919"/>
<rect x="621" y="576" width="18" height="18" fill="#191919"/>
<rect x="690" y="576" width="18" height="18" fill="#191919"/>
<rect x="759" y="576" width="18" height="18" fill="#191919"/>
<rect x="828" y="576" width="18" height="18" fill="#191919"/>
<rect x="897" y="576" width="18" height="18" fill="#191919"/>
<rect x="966" y="576" width="18" height="18" fill="#191919"/>
<rect x="1035" y="576" width="18" height="18" fill="#191919"/>
<rect x="1104" y="576" width="18" height="18" fill="#191919"/>
<rect x="1173" y="576" width="18" height="18" fill="#191919"/>
<rect x="1242" y="576" width="18" height="18" fill="#191919"/>
<rect x="1311" y="576" width="18" height="18" fill="#191919"/>
<rect x="1380" y="576" width="18" height="18" fill="#191919"/>
<rect x="1449" y="576" width="18" height="18" fill="#191919"/>
<rect x="1518" y="576" width="18" height="18" fill="#191919"/>
<rect x="1587" y="576" width="18" height="18" fill="#191919"/>
<rect y="640" width="18" height="18" fill="#191919"/>
<rect x="69" y="640" width="18" height="18" fill="#191919"/>
<rect x="138" y="640" width="18" height="18" fill="#191919"/>
<rect x="207" y="640" width="18" height="18" fill="#191919"/>
<rect x="276" y="640" width="18" height="18" fill="#191919"/>
<rect x="345" y="640" width="18" height="18" fill="#191919"/>
<rect x="414" y="640" width="18" height="18" fill="#191919"/>
<rect x="483" y="640" width="18" height="18" fill="#191919"/>
<rect x="552" y="640" width="18" height="18" fill="#191919"/>
<rect x="621" y="640" width="18" height="18" fill="#191919"/>
<rect x="690" y="640" width="18" height="18" fill="#191919"/>
<rect x="759" y="640" width="18" height="18" fill="#191919"/>
<rect x="828" y="640" width="18" height="18" fill="#191919"/>
<rect x="897" y="640" width="18" height="18" fill="#191919"/>
<rect x="966" y="640" width="18" height="18" fill="#191919"/>
<rect x="1035" y="640" width="18" height="18" fill="#191919"/>
<rect x="1104" y="640" width="18" height="18" fill="#191919"/>
<rect x="1173" y="640" width="18" height="18" fill="#191919"/>
<rect x="1242" y="640" width="18" height="18" fill="#191919"/>
<rect x="1311" y="640" width="18" height="18" fill="#191919"/>
<rect x="1380" y="640" width="18" height="18" fill="#191919"/>
<rect x="1449" y="640" width="18" height="18" fill="#191919"/>
<rect x="1518" y="640" width="18" height="18" fill="#191919"/>
<rect x="1587" y="640" width="18" height="18" fill="#191919"/>
<rect y="704" width="18" height="18" fill="#191919"/>
<rect x="69" y="704" width="18" height="18" fill="#191919"/>
<rect x="138" y="704" width="18" height="18" fill="#191919"/>
<rect x="207" y="704" width="18" height="18" fill="#191919"/>
<rect x="276" y="704" width="18" height="18" fill="#191919"/>
<rect x="345" y="704" width="18" height="18" fill="#191919"/>
<rect x="414" y="704" width="18" height="18" fill="#191919"/>
<rect x="483" y="704" width="18" height="18" fill="#191919"/>
<rect x="552" y="704" width="18" height="18" fill="#191919"/>
<rect x="621" y="704" width="18" height="18" fill="#191919"/>
<rect x="690" y="704" width="18" height="18" fill="#191919"/>
<rect x="759" y="704" width="18" height="18" fill="#191919"/>
<rect x="828" y="704" width="18" height="18" fill="#191919"/>
<rect x="897" y="704" width="18" height="18" fill="#191919"/>
<rect x="966" y="704" width="18" height="18" fill="#191919"/>
<rect x="1035" y="704" width="18" height="18" fill="#191919"/>
<rect x="1104" y="704" width="18" height="18" fill="#191919"/>
<rect x="1173" y="704" width="18" height="18" fill="#191919"/>
<rect x="1242" y="704" width="18" height="18" fill="#191919"/>
<rect x="1311" y="704" width="18" height="18" fill="#191919"/>
<rect x="1380" y="704" width="18" height="18" fill="#191919"/>
<rect x="1449" y="704" width="18" height="18" fill="#191919"/>
<rect x="1518" y="704" width="18" height="18" fill="#191919"/>
<rect x="1587" y="704" width="18" height="18" fill="#191919"/>
<rect y="768" width="18" height="18" fill="#191919"/>
<rect x="69" y="768" width="18" height="18" fill="#191919"/>
<rect x="138" y="768" width="18" height="18" fill="#191919"/>
<rect x="207" y="768" width="18" height="18" fill="#191919"/>
<rect x="276" y="768" width="18" height="18" fill="#191919"/>
<rect x="345" y="768" width="18" height="18" fill="#191919"/>
<rect x="414" y="768" width="18" height="18" fill="#191919"/>
<rect x="483" y="768" width="18" height="18" fill="#191919"/>
<rect x="552" y="768" width="18" height="18" fill="#191919"/>
<rect x="621" y="768" width="18" height="18" fill="#191919"/>
<rect x="690" y="768" width="18" height="18" fill="#191919"/>
<rect x="759" y="768" width="18" height="18" fill="#191919"/>
<rect x="828" y="768" width="18" height="18" fill="#191919"/>
<rect x="897" y="768" width="18" height="18" fill="#191919"/>
<rect x="966" y="768" width="18" height="18" fill="#191919"/>
<rect x="1035" y="768" width="18" height="18" fill="#191919"/>
<rect x="1104" y="768" width="18" height="18" fill="#191919"/>
<rect x="1173" y="768" width="18" height="18" fill="#191919"/>
<rect x="1242" y="768" width="18" height="18" fill="#191919"/>
<rect x="1311" y="768" width="18" height="18" fill="#191919"/>
<rect x="1380" y="768" width="18" height="18" fill="#191919"/>
<rect x="1449" y="768" width="18" height="18" fill="#191919"/>
<rect x="1518" y="768" width="18" height="18" fill="#191919"/>
<rect x="1587" y="768" width="18" height="18" fill="#191919"/>
<rect y="832" width="18" height="18" fill="#191919"/>
<rect x="69" y="832" width="18" height="18" fill="#191919"/>
<rect x="138" y="832" width="18" height="18" fill="#191919"/>
<rect x="207" y="832" width="18" height="18" fill="#191919"/>
<rect x="276" y="832" width="18" height="18" fill="#191919"/>
<rect x="345" y="832" width="18" height="18" fill="#191919"/>
<rect x="414" y="832" width="18" height="18" fill="#191919"/>
<rect x="483" y="832" width="18" height="18" fill="#191919"/>
<rect x="552" y="832" width="18" height="18" fill="#191919"/>
<rect x="621" y="832" width="18" height="18" fill="#191919"/>
<rect x="690" y="832" width="18" height="18" fill="#191919"/>
<rect x="759" y="832" width="18" height="18" fill="#191919"/>
<rect x="828" y="832" width="18" height="18" fill="#191919"/>
<rect x="897" y="832" width="18" height="18" fill="#191919"/>
<rect x="966" y="832" width="18" height="18" fill="#191919"/>
<rect x="1035" y="832" width="18" height="18" fill="#191919"/>
<rect x="1104" y="832" width="18" height="18" fill="#191919"/>
<rect x="1173" y="832" width="18" height="18" fill="#191919"/>
<rect x="1242" y="832" width="18" height="18" fill="#191919"/>
<rect x="1311" y="832" width="18" height="18" fill="#191919"/>
<rect x="1380" y="832" width="18" height="18" fill="#191919"/>
<rect x="1449" y="832" width="18" height="18" fill="#191919"/>
<rect x="1518" y="832" width="18" height="18" fill="#191919"/>
<rect x="1587" y="832" width="18" height="18" fill="#191919"/>
</svg>
