<svg xmlns="http://www.w3.org/2000/svg" width="801" height="498" fill="none" viewBox="0 0 801 498"><path fill="url(#paint0_linear_3_3)" d="M3.17826 41.8622C-4.79275 21.7395 10.0623 0 31.8014 0H166.766C179.447 0 190.678 7.54597 195.389 19.2242L302.816 287.285C305.715 294.473 305.715 302.557 302.816 309.924L235.243 478.27C224.918 503.963 188.322 503.963 177.997 478.27L3.17826 41.8622Z"/><path fill="url(#paint1_linear_3_3)" d="M263.864 40.9639C256.617 21.0209 271.471 0 292.848 0H410.422C423.465 0 435.059 8.08496 439.406 20.1226L537.051 288.184C539.406 294.831 539.406 302.198 537.051 309.025L478.355 470.186C468.574 497.135 430.167 497.135 420.384 470.186L263.864 40.9639Z"/><path fill="url(#paint2_linear_3_3)" d="M499.188 41.8622C491.217 21.7395 506.071 0 527.811 0H662.775C675.456 0 686.688 7.54597 691.398 19.2242L798.825 287.285C801.724 294.473 801.724 302.557 798.825 309.924L731.253 478.27C720.927 503.963 684.333 503.963 674.006 478.27L499.188 41.8622Z"/><defs><linearGradient id="paint0_linear_3_3" x1="12.48" x2="404.853" y1="85.643" y2="254.941" gradientUnits="userSpaceOnUse"><stop stop-color="#2C9AD8"/><stop offset=".152" stop-color="#516DCE"/><stop offset=".455" stop-color="#2E65D0"/><stop offset=".879" stop-color="#6806BB"/><stop offset="1" stop-color="#5204BF"/></linearGradient><linearGradient id="paint1_linear_3_3" x1="272.462" x2="638.16" y1="84.414" y2="230.188" gradientUnits="userSpaceOnUse"><stop stop-color="#3CACF2"/><stop offset=".152" stop-color="#2B7DDD"/><stop offset=".455" stop-color="#3C59F2"/><stop offset=".879" stop-color="#6806BB"/><stop offset="1" stop-color="#5204BF"/></linearGradient><linearGradient id="paint2_linear_3_3" x1="508.49" x2="900.862" y1="85.643" y2="254.941" gradientUnits="userSpaceOnUse"><stop stop-color="#2B94D7"/><stop offset=".152" stop-color="#1F79B1"/><stop offset=".455" stop-color="#2253B1"/><stop offset=".879" stop-color="#6806BB"/><stop offset="1" stop-color="#5204BF"/></linearGradient></defs></svg>