<svg xmlns="http://www.w3.org/2000/svg" width="820" height="120" fill="none" viewBox="0 0 820 120"><path fill="#272E36" fill-rule="evenodd" d="M382.805 4.18481C375.864 4.18481 370.173 9.8062 370.173 16.9735C370.173 24.0002 375.864 29.6216 382.805 29.6216C389.746 29.6216 395.437 24.0002 395.437 16.9735C395.437 9.8062 389.746 4.18481 382.805 4.18481ZM393.91 36.086H371.839V111.834H393.91V36.086ZM243.016 6.99559H264.533V36.0863H281.052V56.3232H264.533V83.0248C264.533 86.9598 267.587 90.0515 271.335 90.0515H280.913V111.553H271.335C255.788 111.553 243.016 98.7647 243.016 82.8843V56.1827H233.022V35.9457H243.016V6.99559ZM333.664 34.3998C323.669 34.3998 315.756 38.6159 312.702 45.221V6.99559H290.631V111.694H312.702V69.2524C312.702 60.3987 318.394 54.2152 326.445 54.2152C334.636 54.2152 339.216 59.5555 339.216 68.5497V111.834H361.288V65.739C361.288 46.0642 351.294 34.3998 333.664 34.3998ZM425.421 35.9457V46.3452C428.753 38.7564 436.804 34.3998 446.938 34.2593C448.465 34.2593 450.408 34.3998 452.768 34.6809V55.761C450.547 55.3394 448.048 55.0584 445.411 55.0584C432.778 55.0584 425.421 62.2256 425.421 74.7332V111.694H403.349V35.9457H425.421ZM514.82 45.9237C512.599 39.3186 503.853 34.6809 492.609 34.6809C482.059 34.6809 473.175 38.4754 466.095 46.0642C459.154 53.5126 455.545 62.9284 455.545 73.8901C455.545 84.8518 459.154 94.1271 466.095 101.856C473.175 109.305 482.059 113.099 492.609 113.099C503.853 113.099 512.599 108.462 514.82 101.856V111.834H536.891V6.99559H514.82V45.9237ZM510.377 87.3814C506.629 91.0353 502.048 92.7217 496.635 92.7217C491.36 92.7217 486.779 90.8948 483.169 87.3814C479.421 83.587 477.617 79.0899 477.617 73.8901C477.617 68.6903 479.421 64.1932 483.169 60.5393C486.917 56.7449 491.36 54.9179 496.635 54.9179C502.187 54.9179 506.768 56.7449 510.377 60.5393C514.264 64.1932 516.208 68.6903 516.208 73.8901C516.208 79.0899 514.264 83.587 510.377 87.3814ZM600.608 36.3671L620.598 72.3439L634.063 36.086H655.719L624.901 116.191L600.608 72.625L576.315 116.191L545.637 36.086H567.292L580.619 72.3439L600.608 36.3671ZM692.088 34.2593C680.705 34.2593 671.127 37.9132 663.631 45.2209C656.273 52.3882 652.525 61.9446 652.525 73.7495V74.4521C652.525 86.257 656.273 95.8134 663.631 102.981C671.266 110.007 680.983 113.661 693.199 113.661C704.582 113.661 713.882 111.413 720.962 106.775V87.2408C714.021 92.1595 705.137 94.5486 694.448 94.5486C682.787 94.5486 675.152 88.7867 674.736 79.7924H729.569C729.846 77.5439 729.985 75.0143 729.985 72.4846C729.985 61.6635 726.376 52.6693 719.435 45.3615C712.494 37.9132 703.193 34.2593 692.088 34.2593ZM674.736 65.3174C674.875 61.804 676.679 58.8528 680.011 56.4637C683.481 54.0746 687.368 52.8098 692.088 52.8098C700.834 52.8098 707.636 58.5717 707.636 65.3174H674.736ZM782.597 34.6809C793.147 34.6809 802.032 38.4753 808.973 46.0642C816.052 53.6531 819.661 62.7878 819.661 73.7495C819.661 84.7112 816.052 93.9865 808.973 101.716C802.032 109.164 793.147 112.959 782.597 112.959C771.353 112.959 762.608 108.321 760.387 101.716V111.694H738.315V6.99559H760.387V45.9237C762.608 39.3186 771.353 34.6809 782.597 34.6809ZM778.572 92.7217C783.847 92.7217 788.289 91.0353 792.037 87.3814C795.785 83.587 797.59 79.0898 797.59 73.8901C797.59 68.6903 795.785 64.1932 792.037 60.5393C788.428 56.7448 783.847 54.9179 778.572 54.9179C773.158 54.9179 768.577 56.7448 764.69 60.5393C760.942 64.1932 758.998 68.6903 758.998 73.8901C758.998 79.0898 760.942 83.587 764.69 87.3814C768.438 90.8948 773.019 92.7217 778.572 92.7217Z" clip-rule="evenodd"/><g clip-path="url(#clip0_25_124)"><path fill="url(#paint0_linear_25_124)" fill-rule="evenodd" d="M0.523162 10.0966C-1.40058 5.2433 2.18458 0 7.43115 0H40.0036C43.0641 0 45.7749 1.81999 46.9116 4.63663L72.8385 69.2895C73.538 71.0228 73.538 72.9728 72.8385 74.7495L56.5304 115.353C54.0382 121.549 45.2065 121.549 42.7144 115.353L0.523162 10.0966ZM63.4397 9.87993C61.6909 5.06996 65.276 0 70.4352 0H98.8103C101.958 0 104.756 1.94999 105.806 4.8533L129.372 69.5062C129.94 71.1095 129.94 72.8862 129.372 74.5328L115.206 113.403C112.845 119.903 103.576 119.903 101.215 113.403L63.4397 9.87993ZM127.142 0C121.895 0 118.31 5.2433 120.234 10.0966L162.425 115.353C164.917 121.549 173.749 121.549 176.241 115.353L192.549 74.7495C193.249 72.9728 193.249 71.0228 192.549 69.2895L166.623 4.63663C165.486 1.81999 162.775 0 159.715 0H127.142Z" clip-rule="evenodd"/></g><defs><linearGradient id="paint0_linear_25_124" x1="96.667" x2="230.019" y1="-28.333" y2="151.175" gradientUnits="userSpaceOnUse"><stop stop-color="#F213A4"/><stop offset="1" stop-color="#5204BF"/></linearGradient><clipPath id="clip0_25_124"><rect width="193.022" height="120" fill="#fff"/></clipPath></defs></svg>